<svg height="383.598" width="711.201" xml:space="preserve" xmlns="http://www.w3.org/2000/svg"><defs><clipPath clipPathUnits="userSpaceOnUse" id="a"><path d="M11.52 162C11.52 81.677 135.307 16.561 288 16.561S564.481 81.677 564.481 162c0 80.322-123.788 145.439-276.481 145.439-152.693 0-276.48-65.117-276.48-145.439"/></clipPath><clipPath clipPathUnits="userSpaceOnUse" id="c"><path d="M0 324h576V0H0Z"/></clipPath><clipPath clipPathUnits="userSpaceOnUse" id="d"><path d="M0 324h576V0H0Z"/></clipPath><clipPath id="e"><path d="m239.03 226.605-42.13 24.317a5.085 5.085 0 0 0-2.546 4.406v48.668c0 1.817.968 3.496 2.546 4.406l42.133 24.336a5.1 5.1 0 0 0 5.09 0l42.126-24.336a5.096 5.096 0 0 0 2.54-4.406v-48.668c0-1.816-.97-3.496-2.55-4.406l-42.12-24.317a5.123 5.123 0 0 0-5.1 0"/></clipPath><clipPath id="g"><path d="M195.398 307.086c.403.523.907.976 1.5 1.316l36.14 20.875 6.02 3.46c.9.52 1.926.74 2.934.665.336-.027.672-.09 1-.183l44.434-81.36c-.34-.37-.738-.68-1.184-.94l-27.586-15.93-14.582-8.39a5.318 5.318 0 0 0-1.32-.53zm0 0"/></clipPath><clipPath id="i"><path d="M241.066 225.953a5.14 5.14 0 0 0-2.035.652l-42.01 24.247 45.3 82.51c.63-.09 1.25-.3 1.81-.624l42.13-24.336a5.105 5.105 0 0 0 2.46-3.476l-46.18-78.89a5.29 5.29 0 0 0-1.03-.102c-.14 0-.28.007-.42.02"/></clipPath><linearGradient id="f" x1="-.348" x2="1.251" gradientTransform="rotate(116.114 53.1 202.97) scale(86.48)" gradientUnits="userSpaceOnUse"><stop offset=".3" stop-color="#3e863d"/><stop offset=".5" stop-color="#55934f"/><stop offset=".8" stop-color="#5aad45"/></linearGradient><linearGradient id="h" x1="-.456" x2=".582" gradientTransform="scale(132.798) rotate(-36.46 4.148 -1.614)" gradientUnits="userSpaceOnUse"><stop offset=".57" stop-color="#3e863d"/><stop offset=".72" stop-color="#619857"/><stop offset="1" stop-color="#76ac64"/></linearGradient><linearGradient id="j" x1=".043" x2=".984" gradientTransform="translate(192.862 279.652) scale(97.417)" gradientUnits="userSpaceOnUse"><stop offset=".16" stop-color="#6bbf47"/><stop offset=".38" stop-color="#79b461"/><stop offset=".47" stop-color="#75ac64"/><stop offset=".7" stop-color="#659e5a"/><stop offset=".9" stop-color="#3e863d"/></linearGradient><radialGradient cx="0" cy="0" fx="0" fy="0" gradientTransform="matrix(363.05789 0 0 -363.05789 177.52 256.307)" gradientUnits="userSpaceOnUse" id="b" r="1" spreadMethod="pad"><stop offset="0" style="stop-opacity:1;stop-color:#aeb2d5"/><stop offset=".3" style="stop-opacity:1;stop-color:#aeb2d5"/><stop offset=".75" style="stop-opacity:1;stop-color:#484c89"/><stop offset="1" style="stop-opacity:1;stop-color:#484c89"/></radialGradient></defs><g style="display:inline"><path style="fill:#000;stroke-width:.128358" d="M-17.07-1.423h752.524v406.847H-17.07z"/><path style="fill:#0d1117;fill-opacity:1;stroke:none;stroke-width:1.42254" d="M-16.36 202V-1.422H734.743v406.847H-16.358ZM87.85 320.69c16.997-4.308 19.552-5.503 19.552-9.149 0-1.955-1.528-3.163-5.335-4.217-11.687-3.236-11.736-3.426-11.736-46.296v-36.471l-3.912-6.655-3.912-6.655-.71 46.233c-.768 49.854-.834 50.287-8.713 56.65-4.424 3.572-5.057 5.83-2.384 8.502 2.125 2.125.286 2.334 17.15-1.941zm74.959-20.01c13.732-3.624 25.767-7.223 26.745-7.998 3.259-2.583 2.034-6.469-2.342-7.43-2.266-.498-5.08-1.989-6.253-3.314s-15.05-26.414-30.836-55.754c-15.787-29.34-29.137-53.732-29.666-54.204-.53-.472-9.444 1.448-19.81 4.268l-18.846 5.126.026 4.268c.016 2.7 7.31 18.11 19.866 41.965 17.004 32.308 19.491 37.838 17.398 38.684-1.344.544-6.123 2.002-10.622 3.24-7.955 2.192-8.18 2.39-8.18 7.193 0 5.823.308 5.87 13.514 2.094 5.472-1.565 10.757-2.845 11.745-2.845.988 0 3.8 4.065 6.25 9.033l4.455 9.034-3.237 4.378c-3.71 5.018-2.994 8.85 1.653 8.85 1.746 0 14.408-2.964 28.14-6.588zm90.498-21.977c4.642-.846 8.905-1.982 9.472-2.526.568-.543.3-3.372-.594-6.286-1.22-3.977-2.392-5.298-4.696-5.298-3.126 0-7.733-4.115-10.352-9.247-1.946-3.811-25.932-93.74-25.932-97.223 0-1.506 1.6-3.787 3.557-5.069 3.965-2.598 4.733-7.592 1.366-8.884-2.839-1.09-56.08 13.068-58.592 15.58-2.914 2.914-.751 6.302 4.673 7.32 2.674.502 5.445 2.005 6.156 3.34.711 1.336 5.905 19.713 11.543 40.837 12.299 46.093 13.524 49.89 18.012 55.848 8.031 10.662 25.73 15.189 45.387 11.608zm28.827-9.832c11.056-8.01 16.934-21.432 15.34-35.029-.47-4.003-5.019-22.887-10.109-41.965-5.09-19.077-9.255-37.119-9.256-40.091-.001-5.75 2.643-12.105 6.305-15.144 2.862-2.375 2.872-7.033.017-8.129-2.188-.839-28.904 5.7-33.708 8.252-3.95 2.097-3.105 6.713 1.422 7.779 6.529 1.537 12.736 6.035 15.028 10.891 3.988 8.447 20.892 74.062 20.892 81.096 0 8.718-4.172 16.982-11.124 22.035-5.123 3.723-5.3 4.125-4.087 9.227.697 2.934 1.748 5.335 2.336 5.335.587 0 3.712-1.916 6.944-4.257zm84.671-22.9c11.852-3.202 21.699-5.966 21.882-6.143.294-.284-32.946-125.72-34.38-129.738-.374-1.047-8.156.462-23.09 4.477-27.842 7.486-27.504 7.346-27.504 11.416 0 2.684.967 3.52 4.928 4.264 2.71.508 5.52 1.658 6.242 2.554.722.896 7.602 25.235 15.288 54.086l13.975 52.456-3.857 3.076c-2.122 1.692-3.858 4.493-3.858 6.224 0 4.601 5.102 4.153 30.374-2.673zm49.288-16.255c20.767-14.45 28.191-47.342 17.725-78.521-7.06-21.029-18.657-35.412-34.546-42.846-6.782-3.173-10.045-3.778-20.398-3.785-6.78-.004-12.761.427-13.294.958-.533.53-.537 2.931-.01 5.335.724 3.295 1.745 4.369 4.155 4.369 3.236 0 7.823 4.047 10.48 9.246 2.237 4.377 24.508 88.195 24.508 92.237 0 1.962-1.653 5.53-3.673 7.93-2.865 3.406-3.47 5.285-2.753 8.55l.92 4.184 5.953-2.096c3.275-1.153 8.194-3.656 10.933-5.561zm80.637-18.486c28.771-7.722 30.322-8.34 30.322-12.088 0-2.968-.618-3.375-7.358-4.846-2.698-.588-4.234-2.171-5.292-5.453C511.9 181.08 487.22 88.479 487.22 86.854c0-.836 1.6-2.912 3.557-4.613 4.039-3.512 4.655-7.937 1.284-9.23-2.206-.847-51.328 11.364-56.494 14.043-3.95 2.049-2.549 7.446 2.072 7.98 2.07.24 4.734 1.52 5.919 2.846 1.773 1.983 29.437 101.256 29.437 105.637 0 .741-1.6 2.74-3.556 4.44-5.15 4.478-4.69 9.692.856 9.692 1.384 0 13.28-2.889 26.435-6.42zm97.9-26.29c32.695-8.593 33.755-9.015 33.163-13.182-.363-2.558-1.509-3.274-5.811-3.63-3.632-.3-6.005-1.446-7.364-3.556-1.102-1.713-8.866-28.809-17.253-60.215l-15.248-57.1-12.952 3.475c-25.046 6.723-27.888 7.687-27.888 9.466 0 .987 6.721 26.878 14.937 57.536 8.215 30.658 14.936 56.995 14.936 58.527 0 1.532-1.92 4.153-4.267 5.824-5.3 3.775-5.811 9.958-.822 9.958.851 0 13.708-3.196 28.569-7.102zM527.12 94.98c.628-12.273 1.347-16.04 3.665-19.205 2.373-3.238 2.653-4.82 1.58-8.916-.716-2.738-1.48-5.16-1.697-5.382-.4-.41-22.458 5.376-23.263 6.103-.81.732 9.961 39.794 11.49 41.669.828 1.015 2.841 1.656 4.475 1.422 2.743-.392 3.029-1.59 3.75-15.692zm98.993-13.18c.619-1.614-8.7-40.99-10.198-43.083-.3-.422-22.383 5.402-23.164 6.109-.246.222-.024 2.658.493 5.413.703 3.752 1.982 5.44 5.096 6.73 4.972 2.06 11.666 10.171 15.447 18.718 1.51 3.415 3.204 6.666 3.763 7.226 1.832 1.832 7.727 1.065 8.563-1.113z"/></g><g style="display:inline"><path fill="#689f63" d="M355.605 373.625c-1.946 0-3.88-.51-5.586-1.493l-17.783-10.528c-2.656-1.485-1.36-2.01-.484-2.313 3.541-1.24 4.26-1.52 8.04-3.667.397-.226.917-.146 1.324.094l13.661 8.106c.494.267 1.194.267 1.651 0l53.267-30.746c.493-.28.813-.854.813-1.44V270.17c0-.613-.32-1.16-.824-1.467l-53.245-30.72a1.638 1.638 0 0 0-1.64 0l-53.235 30.72a1.698 1.698 0 0 0-.844 1.454v61.466c0 .587.32 1.147.827 1.427l14.586 8.427c7.92 3.96 12.76-.707 12.76-5.4V275.41c0-.867.68-1.533 1.547-1.533h6.747c.84 0 1.533.666 1.533 1.533v60.693c0 10.56-5.76 16.627-15.773 16.627-3.08 0-5.507 0-12.28-3.333l-13.974-8.054a11.263 11.263 0 0 1-5.586-9.72v-61.466c0-4 2.133-7.734 5.586-9.707l53.32-30.76c3.374-1.907 7.854-1.907 11.2 0l53.254 30.773a11.237 11.237 0 0 1 5.586 9.707v61.467a11.27 11.27 0 0 1-5.586 9.706l-53.254 30.76a11.196 11.196 0 0 1-5.613 1.493"/><path fill="#689f63" d="M372.059 331.27c-23.307 0-28.194-10.698-28.194-19.671 0-.853.688-1.533 1.543-1.533h6.88c.76 0 1.4.553 1.52 1.304 1.04 7.01 4.133 10.546 18.227 10.546 11.226 0 16-2.536 16-8.49 0-3.426-1.36-5.972-18.8-7.68-14.587-1.44-23.6-4.652-23.6-16.319 0-10.747 9.066-17.147 24.253-17.147 17.053 0 25.507 5.92 26.573 18.64a1.552 1.552 0 0 1-1.546 1.68h-6.92c-.72 0-1.347-.506-1.494-1.2-1.666-7.373-5.693-9.733-16.64-9.733-12.253 0-13.68 4.267-13.68 7.467 0 3.88 1.68 5.013 18.214 7.2 16.373 2.173 24.146 5.24 24.146 16.746 0 11.6-9.68 18.254-26.56 18.254m64.88-65.187h1.787c1.467 0 1.747-1.027 1.747-1.627 0-1.573-1.08-1.573-1.68-1.573h-1.84zm-2.173-5.04h3.96c1.36 0 4.027 0 4.027 3.04 0 2.12-1.36 2.56-2.174 2.827 1.587.106 1.694 1.146 1.907 2.613.107.92.28 2.507.6 3.04h-2.44c-.067-.533-.44-3.467-.44-3.627-.16-.653-.387-.973-1.2-.973h-2.013v4.613h-2.227zm-4.76 5.733c0 4.774 3.853 8.64 8.587 8.64 4.773 0 8.626-3.946 8.626-8.64 0-4.786-3.906-8.586-8.64-8.586-4.666 0-8.586 3.746-8.586 8.573m18.88.04c0 5.653-4.627 10.267-10.267 10.267-5.6 0-10.267-4.56-10.267-10.267 0-5.813 4.774-10.267 10.267-10.267 5.533 0 10.253 4.467 10.253 10.267"/><path fill="#fff" fill-rule="evenodd" d="M190.658 133.12a6.82 6.82 0 0 0-3.411-5.927l-56.475-32.494a6.595 6.595 0 0 0-3.104-.893h-.584a6.71 6.71 0 0 0-3.12.893l-56.471 32.494a6.872 6.872 0 0 0-3.416 5.933l.124 87.52c0 1.213.626 2.346 1.693 2.946 1.04.64 2.347.64 3.387 0l33.573-19.226c2.12-1.262 3.413-3.49 3.413-5.92v-40.887a6.8 6.8 0 0 1 3.407-5.906l14.293-8.232a6.781 6.781 0 0 1 3.413-.918c1.168 0 2.36.302 3.392.916l14.287 8.23a6.804 6.804 0 0 1 3.413 5.906v40.884c0 2.427 1.311 4.667 3.42 5.92l33.552 19.213a3.333 3.333 0 0 0 3.414 0 3.424 3.424 0 0 0 1.69-2.946zm266.49 45.567c0 .61-.324 1.173-.854 1.475l-19.397 11.181a1.71 1.71 0 0 1-1.702 0l-19.4-11.181a1.69 1.69 0 0 1-.854-1.475v-22.394c0-.611.32-1.174.84-1.48l19.387-11.2a1.723 1.723 0 0 1 1.72 0l19.4 11.2a1.7 1.7 0 0 1 .853 1.48zm5.24-165.869a3.424 3.424 0 0 0-3.392.036 3.422 3.422 0 0 0-1.683 2.947v86.666a2.384 2.384 0 0 1-3.579 2.067l-14.146-8.148a6.81 6.81 0 0 0-6.816 0l-56.493 32.604a6.807 6.807 0 0 0-3.414 5.893v65.227c0 2.44 1.303 4.68 3.414 5.906l56.493 32.627a6.849 6.849 0 0 0 6.823 0l56.493-32.64a6.837 6.837 0 0 0 3.413-5.907V37.536a6.837 6.837 0 0 0-3.507-5.96zM650.51 155.703a6.821 6.821 0 0 0 3.391-5.896V134a6.825 6.825 0 0 0-3.396-5.9l-56.133-32.586a6.817 6.817 0 0 0-6.84 0l-56.48 32.6a6.809 6.809 0 0 0-3.413 5.906v65.2c0 2.453 1.32 4.72 3.44 5.933l56.12 31.987a6.804 6.804 0 0 0 6.693.04l33.947-18.867a3.415 3.415 0 0 0 1.746-2.96 3.411 3.411 0 0 0-1.72-2.973l-56.826-32.613a3.384 3.384 0 0 1-1.72-2.947v-20.453c0-1.221.64-2.347 1.706-2.955l17.68-10.2a3.371 3.371 0 0 1 3.4 0l17.694 10.2a3.4 3.4 0 0 1 1.706 2.947v16.08c0 1.213.654 2.347 1.707 2.96 1.053.6 2.36.6 3.413-.013zm0 0"/><path fill="#689f63" fill-rule="evenodd" d="M590.126 152.653a1.293 1.293 0 0 1 1.307 0l10.84 6.253c.405.235.653.667.653 1.133v12.52c0 .467-.248.899-.653 1.134l-10.84 6.253a1.293 1.293 0 0 1-1.307 0l-10.833-6.253a1.305 1.305 0 0 1-.667-1.134v-12.52c0-.466.24-.898.654-1.133zm0 0"/><g clip-path="url(#e)" transform="translate(-40.331 -206.301) scale(1.33333)"><path fill="url(#f)" d="m331.363 246.793-118.715-58.19-60.87 124.174L270.49 370.97zm0 0" style="fill:url(#f)"/></g><g clip-path="url(#g)" transform="translate(-40.331 -206.301) scale(1.33333)"><path fill="url(#h)" d="m144.07 264.004 83.825 113.453 110.86-81.906-83.83-113.45zm0 0" style="fill:url(#h)"/></g><g clip-path="url(#i)" transform="translate(-40.331 -206.301) scale(1.33333)"><path fill="url(#j)" d="M197.02 225.934v107.43h91.683v-107.43zm0 0" style="fill:url(#j)"/></g></g><g style="display:inline"><path style="display:inline;fill:#f55;fill-opacity:.730233;stroke:red;stroke-width:3.325;stroke-linecap:butt;stroke-linejoin:round;stroke-miterlimit:4;stroke-dasharray:none;stroke-dashoffset:5;stroke-opacity:1;paint-order:normal" transform="rotate(-15 0 0)" d="M-36.572 182.412h642.378v165.98H-36.572z"/></g><g style="display:inline"><text y="99.196" x="58.702" style="font-style:normal;font-weight:400;font-size:40px;line-height:1.25;font-family:sans-serif;letter-spacing:0;word-spacing:0;fill:#000;fill-opacity:1;stroke:none" xml:space="preserve"/><g aria-label="AUDIT" style="font-style:normal;font-weight:400;font-size:40px;line-height:1.25;font-family:sans-serif;letter-spacing:0;word-spacing:0;display:inline;fill:#000;fill-opacity:1;stroke:#000;stroke-width:3;stroke-linecap:square;stroke-linejoin:bevel;stroke-miterlimit:4;stroke-dasharray:none;stroke-opacity:1;paint-order:fill markers stroke"><path d="M31.91 195.573h40.667l28.053 118.57q.808 3.129 1.817 5.55.908 1.918 4.036 3.13 2.624 1.11 3.633 2.22 1.01 1.11 1.01 3.027-.001 5.247-7.872 5.247H52.899q-3.027 0-4.844-1.413-1.816-1.514-1.816-3.935 0-2.019.807-3.028.808-1.009 3.633-2.523 2.018-1.009 2.826-2.22.807-1.21.807-3.027 0-1.715-.303-3.027l-3.229-14.632H22.626l2.724-12.009h22.604l-18.567-82.04Zm-6.963 25.631 5.146 20.889-17.861 65.189q-.807 2.825-.807 5.247 0 6.358 5.953 9.082l3.532 1.615q3.33 1.513 3.33 5.045 0 5.046-7.366 5.046H-8.758q-3.733 0-5.954-1.514-2.119-1.614-2.119-4.339 0-2.926 4.44-4.844 4.138-1.816 6.055-3.229 2.018-1.514 3.835-4.036 2.825-4.138 4.642-11zM127.977 293.053V213.94q0-3.532-1.21-5.147-.606-.908-1.212-1.11-.504-.303-3.834-1.413-4.037-1.311-4.037-5.348 0-2.624 1.918-3.935 2.018-1.413 5.65-1.413h50.255l3.632.403q1.716.505 2.826 1.817 1.11 1.312 1.11 3.128 0 4.037-4.037 5.348-3.33 1.11-3.935 1.413-.505.202-1.11 1.11-1.211 1.615-1.211 5.147v84.664q0 8.578.404 12.009.504 3.33 1.917 6.055 1.312 2.522 2.926 3.632 1.615 1.11 6.156 2.523v13.22h-2.22q-13.119 0-21.797-2.321-10.192-2.725-17.861-8.073-7.67-5.349-10.899-12.009-3.43-7.064-3.43-20.586zm65.492 42.989v-13.22q10.09-1.312 16.852-8.275 7.67-7.972 7.67-22.907v-65.794q0-13.825-10.596-19.274-3.129-1.614-4.138-2.724-.908-1.211-.908-3.431 0-2.624 1.917-3.734 1.918-1.11 6.257-1.11h24.723q3.128 0 4.138.202 1.11.1 2.119.706 2.623 1.514 2.623 4.137 0 2.22-1.614 3.734-.505.505-4.34 2.725-4.44 2.422-6.962 7.467-2.523 4.945-2.523 11.302v65.895q0 16.954-7.468 27.852-5.449 8.073-15.64 12.917-5.046 2.422-12.11 3.532zM314.563 195.573v137.744h-47.53q-3.633 0-5.65-1.312-1.918-1.413-1.918-3.935 0-4.138 4.036-5.45 3.33-1.11 3.835-1.312.605-.302 1.21-1.21 1.212-1.615 1.212-5.147V213.939q0-3.532-1.211-5.147-.606-.908-1.211-1.11-.505-.303-3.835-1.413-4.036-1.311-4.036-5.449 0-2.523 1.917-3.834 2.018-1.413 5.651-1.413h2.624zm20.384 108.883v-79.619q0-7.366-2.12-11.706-1.311-2.825-3.229-4.137-1.917-1.312-6.054-2.22v-11.201q5.348 0 9.082.403 12.815 1.413 24.824 10.899 11.907 9.183 17.66 23.916 5.953 14.935 5.953 33.099 0 20.586-7.568 36.63-7.569 15.945-21.696 25.128-6.862 4.44-12.816 6.054-5.853 1.615-15.44 1.615v-10.899q4.239-1.11 5.854-2.018 1.715-.908 2.926-2.825 1.514-2.22 2.018-4.945.606-2.825.606-8.174zM448.674 333.317H401.044q-3.633 0-5.651-1.312-1.918-1.413-1.918-3.935 0-4.138 4.037-5.45 3.33-1.11 3.834-1.312.606-.302 1.211-1.21 1.211-1.615 1.211-5.147V213.939q0-3.532-1.21-5.147-.606-.908-1.212-1.11-.504-.303-3.834-1.413-4.037-1.311-4.037-5.449 0-2.523 1.918-3.834 2.018-1.413 5.65-1.413h50.255q3.632 0 5.55 1.413 2.018 1.311 2.018 3.834 0 4.138-4.037 5.45-3.33 1.11-3.935 1.412-.505.202-1.11 1.11-1.211 1.615-1.211 5.147V314.95q0 3.532 1.21 5.147.606.908 1.11 1.21l3.936 1.312q4.037 1.312 4.037 5.45 0 2.522-2.018 3.935-1.918 1.312-5.55 1.312zM550.796 195.573v118.57q0 3.936 1.514 5.652.807 1.009 1.514 1.312.706.201 4.642 1.21 4.843 1.11 4.843 5.55 0 2.624-2.623 4.239-1.918 1.21-6.459 1.21h-51.666q-4.44 0-6.761-1.31-2.22-1.414-2.22-4.138 0-4.44 4.843-5.55 3.936-1.01 4.642-1.211.707-.303 1.413-1.312 1.514-1.716 1.514-5.651V195.573Zm34.916 0v41.273q0 2.926-1.716 4.742-1.614 1.817-4.238 1.817-2.523 0-4.238-1.615-1.615-1.715-2.12-4.642l-1.009-6.155q-1.513-9.385-5.853-16.247-2.724-4.238-7.366-6.963v-12.21zm-114.434 0h26.54v12.21q-4.743 2.725-7.367 6.963-4.339 6.862-5.853 16.247l-1.009 6.155q-.504 2.927-2.22 4.642-1.614 1.615-4.137 1.615-2.624 0-4.34-1.817-1.614-1.816-1.614-4.742z" style="font-style:normal;font-variant:normal;font-weight:400;font-stretch:normal;font-size:206.667px;font-family:Stencil;-inkscape-font-specification:Stencil;fill:red;stroke:#000;stroke-width:3;stroke-linecap:square;stroke-linejoin:bevel;stroke-miterlimit:4;stroke-dasharray:none;stroke-opacity:1;paint-order:fill markers stroke" transform="rotate(-15 0 0)"/></g></g></svg>