<?xml version="1.0" encoding="UTF-8" standalone="no"?>
<svg
   height="383.5975"
   id="svg3430"
   version="1.1"
   viewBox="0 0 711.20123 383.5975"
   width="711.20123"
   xml:space="preserve"
   sodipodi:docname="node-version-audit-logo-inkscape.svg"
   inkscape:version="1.1.2 (b8e25be8, 2022-02-05)"
   inkscape:export-xdpi="87.842072"
   inkscape:export-ydpi="87.842072"
   inkscape:export-filename="/Users/daniel/repo/node-version-audit/docs/node-version-audit-logo.png"
   xmlns:inkscape="http://www.inkscape.org/namespaces/inkscape"
   xmlns:sodipodi="http://sodipodi.sourceforge.net/DTD/sodipodi-0.dtd"
   xmlns="http://www.w3.org/2000/svg"
   xmlns:svg="http://www.w3.org/2000/svg"
   xmlns:rdf="http://www.w3.org/1999/02/22-rdf-syntax-ns#"
   xmlns:cc="http://creativecommons.org/ns#"
   xmlns:dc="http://purl.org/dc/elements/1.1/"><sodipodi:namedview
   pagecolor="#0d1117"
   bordercolor="#666666"
   borderopacity="1"
   objecttolerance="10"
   gridtolerance="10"
   guidetolerance="10"
   inkscape:pageopacity="0"
   inkscape:pageshadow="2"
   inkscape:window-width="1512"
   inkscape:window-height="916"
   id="namedview3793"
   showgrid="false"
   inkscape:zoom="0.70296732"
   inkscape:cx="336.431"
   inkscape:cy="399.73409"
   inkscape:window-x="1"
   inkscape:window-y="38"
   inkscape:window-maximized="0"
   inkscape:current-layer="layer5"
   fit-margin-top="-0.2"
   fit-margin-left="0.6"
   inkscape:pagecheckerboard="0" />
  <title
   id="title3510">Node Version Audit Logo</title>
  <metadata
   id="metadata3436">
    <rdf:RDF>
      <cc:Work
   rdf:about="">
        <dc:format>image/svg+xml</dc:format>
        <dc:type
   rdf:resource="http://purl.org/dc/dcmitype/StillImage" />
        <dc:title>Node Version Audit Logo</dc:title>
        <dc:creator>
          <cc:Agent>
            <dc:title>Daniel White</dc:title>
          </cc:Agent>
        </dc:creator>
        <dc:description />
        <dc:contributor>
          <cc:Agent>
            <dc:title />
          </cc:Agent>
        </dc:contributor>
        <cc:license
   rdf:resource="http://creativecommons.org/licenses/by-sa/4.0/" />
        <dc:rights>
          <cc:Agent>
            <dc:title>Copyright Daniel White 2022 - All rights reserved.</dc:title>
          </cc:Agent>
        </dc:rights>
        <dc:date>2022</dc:date>
      <dc:source>https://github.com/lightswitch05/node-version-audit</dc:source></cc:Work>

    <cc:License
   rdf:about="http://creativecommons.org/licenses/by-sa/4.0/"><cc:permits
     rdf:resource="http://creativecommons.org/ns#Reproduction" /><cc:permits
     rdf:resource="http://creativecommons.org/ns#Distribution" /><cc:requires
     rdf:resource="http://creativecommons.org/ns#Notice" /><cc:requires
     rdf:resource="http://creativecommons.org/ns#Attribution" /><cc:permits
     rdf:resource="http://creativecommons.org/ns#DerivativeWorks" /><cc:requires
     rdf:resource="http://creativecommons.org/ns#ShareAlike" /></cc:License></rdf:RDF>
  </metadata>
  <defs
   id="defs3434"><linearGradient
     id="linearGradient6434"
     inkscape:swatch="solid"><stop
       style="stop-color:#ff0000;stop-opacity:1;"
       offset="0"
       id="stop6432" /></linearGradient><clipPath
     clipPathUnits="userSpaceOnUse"
     id="clipPath3444">
      <path
   d="M 11.52,162 C 11.52,81.677 135.307,16.561 288,16.561 v 0 c 152.693,0 276.481,65.116 276.481,145.439 v 0 c 0,80.322 -123.788,145.439 -276.481,145.439 v 0 C 135.307,307.439 11.52,242.322 11.52,162"
   id="path3446"
   inkscape:connector-curvature="0" />
    </clipPath><radialGradient
     cx="0"
     cy="0"
     fx="0"
     fy="0"
     gradientTransform="matrix(363.05789,0,0,-363.05789,177.52002,256.30713)"
     gradientUnits="userSpaceOnUse"
     id="radialGradient3452"
     r="1"
     spreadMethod="pad">
      <stop
   id="stop3454"
   offset="0"
   style="stop-opacity:1;stop-color:#aeb2d5" />
      <stop
   id="stop3456"
   offset="0.3"
   style="stop-opacity:1;stop-color:#aeb2d5" />
      <stop
   id="stop3458"
   offset="0.75"
   style="stop-opacity:1;stop-color:#484c89" />
      <stop
   id="stop3460"
   offset="1"
   style="stop-opacity:1;stop-color:#484c89" />
    </radialGradient><clipPath
     clipPathUnits="userSpaceOnUse"
     id="clipPath3468">
      <path
   d="M 0,324 H 576 V 0 H 0 Z"
   id="path3470"
   inkscape:connector-curvature="0" />
    </clipPath><clipPath
     clipPathUnits="userSpaceOnUse"
     id="clipPath3480">
      <path
   d="M 0,324 H 576 V 0 H 0 Z"
   id="path3482"
   inkscape:connector-curvature="0" />
    </clipPath><linearGradient
     id="b"
     x1="-.348"
     x2="1.251"
     gradientTransform="matrix(-38.064915,77.652126,-77.652126,-38.064915,258.72325,244.62943)"
     gradientUnits="userSpaceOnUse"><stop
       offset=".3"
       stop-color="#3e863d"
       id="stop241" /><stop
       offset=".5"
       stop-color="#55934f"
       id="stop243" /><stop
       offset=".8"
       stop-color="#5aad45"
       id="stop245" /></linearGradient><linearGradient
     id="d"
     x1="-.456"
     x2=".582"
     gradientTransform="matrix(106.8057,-78.916731,78.916731,106.8057,235.18824,285.39477)"
     gradientUnits="userSpaceOnUse"><stop
       offset=".57"
       stop-color="#3e863d"
       id="stop248" /><stop
       offset=".72"
       stop-color="#619857"
       id="stop250" /><stop
       offset="1"
       stop-color="#76ac64"
       id="stop252" /></linearGradient><linearGradient
     id="f"
     x1=".043"
     x2=".984"
     gradientTransform="matrix(97.417,0,0,97.417,192.862,279.652)"
     gradientUnits="userSpaceOnUse"><stop
       offset=".16"
       stop-color="#6bbf47"
       id="stop255" /><stop
       offset=".38"
       stop-color="#79b461"
       id="stop257" /><stop
       offset=".47"
       stop-color="#75ac64"
       id="stop259" /><stop
       offset=".7"
       stop-color="#659e5a"
       id="stop261" /><stop
       offset=".9"
       stop-color="#3e863d"
       id="stop263" /></linearGradient><clipPath
     id="a"><path
       d="m239.03 226.605-42.13 24.317a5.085 5.085 0 0 0-2.546 4.406v48.668c0 1.817.968 3.496 2.546 4.406l42.133 24.336a5.1 5.1 0 0 0 5.09 0l42.126-24.336a5.096 5.096 0 0 0 2.54-4.406v-48.668c0-1.816-.97-3.496-2.55-4.406l-42.12-24.317a5.123 5.123 0 0 0-5.1 0"
       id="path266" /></clipPath><clipPath
     id="c"><path
       d="M195.398 307.086c.403.523.907.976 1.5 1.316l36.14 20.875 6.02 3.46c.9.52 1.926.74 2.934.665.336-.027.672-.09 1-.183l44.434-81.36c-.34-.37-.738-.68-1.184-.94l-27.586-15.93-14.582-8.39a5.318 5.318 0 0 0-1.32-.53zm0 0"
       id="path269" /></clipPath><clipPath
     id="e"><path
       d="M241.066 225.953a5.14 5.14 0 0 0-2.035.652l-42.01 24.247 45.3 82.51c.63-.09 1.25-.3 1.81-.624l42.13-24.336a5.105 5.105 0 0 0 2.46-3.476l-46.18-78.89a5.29 5.29 0 0 0-1.03-.102c-.14 0-.28.007-.42.02"
       id="path272" /></clipPath></defs>

<g
   inkscape:groupmode="layer"
   id="layer5"
   inkscape:label="background"
   style="display:inline"
   sodipodi:insensitive="true"><rect
     style="fill:#000000;stroke-width:0.128358"
     id="rect293"
     width="752.52435"
     height="406.8468"
     x="-17.070496"
     y="-1.4225419" /><path
     style="fill:#0d1117;fill-opacity:1;stroke:none;stroke-width:1.42254"
     d="M -16.359224,202.00086 V -1.4225412 H 359.19166 734.74255 V 202.00086 405.42425 H 359.19166 -16.359224 Z M 87.849846,320.6909 c 16.997514,-4.30865 19.552014,-5.50406 19.552014,-9.14959 0,-1.95551 -1.52759,-3.16315 -5.33453,-4.21719 -11.68773,-3.23604 -11.735962,-3.42631 -11.735962,-46.29661 v -36.47064 l -3.911988,-6.65475 -3.911988,-6.65475 -0.711271,46.23259 c -0.766989,49.85431 -0.833483,50.28669 -8.711864,56.64912 -4.424475,3.57313 -5.057213,5.83002 -2.383958,8.50327 2.125047,2.12505 0.285914,2.33325 17.149547,-1.94145 z m 74.959144,-20.01102 c 13.73155,-3.62395 25.76663,-7.22312 26.74463,-7.99815 3.25893,-2.58258 2.03399,-6.4687 -2.34194,-7.42982 -2.26607,-0.49771 -5.0799,-1.98888 -6.25295,-3.31374 -1.17306,-1.32486 -15.04921,-26.4142 -30.83589,-55.75411 -15.78668,-29.33992 -29.13648,-53.73178 -29.66622,-54.20414 -0.52973,-0.47237 -9.44395,1.44806 -19.80937,4.26762 l -18.846211,5.12647 0.02563,4.26762 c 0.01623,2.70055 7.311044,18.11003 19.866151,41.96497 17.00401,32.30794 19.49131,37.83851 17.39803,38.68483 -1.34336,0.54312 -6.1233,2.00133 -10.62209,3.24046 -7.95464,2.191 -8.17961,2.3888 -8.17961,7.19211 0,5.82285 0.30829,5.87062 13.51414,2.09408 5.47181,-1.56479 10.75694,-2.84508 11.74472,-2.84508 0.9878,0 3.80053,4.065 6.25054,9.03334 l 4.45454,9.03333 -3.23689,4.37813 c -3.70983,5.01783 -2.99397,8.85111 1.65296,8.85111 1.74536,0 14.40828,-2.96506 28.13983,-6.58903 z m 90.49772,-21.9769 c 4.64248,-0.8457 8.90521,-1.98218 9.47272,-2.5255 0.56751,-0.54333 0.30007,-3.37218 -0.59431,-6.28634 -1.22057,-3.97696 -2.39178,-5.29847 -4.69587,-5.29847 -3.12596,0 -7.73293,-4.11473 -10.35267,-9.24652 -1.94565,-3.81134 -25.93142,-93.73996 -25.93142,-97.22338 0,-1.5062 1.60036,-3.78716 3.55636,-5.06877 3.96527,-2.59816 4.73339,-7.59242 1.36643,-8.88444 -2.83876,-1.08934 -56.07985,13.06843 -58.59211,15.5807 -2.91398,2.91397 -0.75092,6.30221 4.67291,7.31973 2.67467,0.50177 5.44504,2.00501 6.15634,3.34053 0.71131,1.33553 5.90541,19.71212 11.54246,40.83685 12.29947,46.0922 13.5245,49.89045 18.01213,55.84788 8.03144,10.6619 25.7306,15.18847 45.38703,11.60773 z m 28.82686,-9.83175 c 11.05666,-8.00939 16.93471,-21.43207 15.33982,-35.02887 -0.46955,-4.00311 -5.01826,-22.88735 -10.10821,-41.96496 -5.08995,-19.07763 -9.25535,-37.11893 -9.25642,-40.09177 -0.001,-5.75056 2.64368,-12.10463 6.30568,-15.14383 2.86186,-2.37512 2.87135,-7.03282 0.0165,-8.12831 -2.18769,-0.83949 -28.90418,5.70027 -33.7081,8.25119 -3.94917,2.09704 -3.10507,6.71283 1.42254,7.7789 6.52814,1.53709 12.73529,6.03577 15.02776,10.89147 3.98816,8.44736 20.89141,74.06172 20.89141,81.09546 0,8.71873 -4.17146,16.98246 -11.12331,22.03542 -5.12277,3.72352 -5.30066,4.12509 -4.08767,9.22746 0.69751,2.93399 1.7487,5.33453 2.33598,5.33453 0.58729,0 3.71207,-1.91551 6.94397,-4.25669 z m 84.67176,-22.90113 c 11.85163,-3.20083 21.69835,-5.96468 21.88159,-6.14187 0.29369,-0.28402 -32.9463,-125.72001 -34.38012,-129.73841 -0.37368,-1.04723 -8.15603,0.46179 -23.08951,4.47712 -27.84272,7.48639 -27.50474,7.34612 -27.50474,11.4157 0,2.68398 0.96762,3.52122 4.92821,4.26423 2.71053,0.5085 5.51943,1.65776 6.24203,2.55391 0.72259,0.89615 7.60244,25.23486 15.28855,54.08602 l 13.97473,52.45666 -3.85753,3.07589 c -2.12164,1.69174 -3.85754,4.49217 -3.85754,6.22316 0,4.60192 5.10193,4.15304 30.37433,-2.67241 z m 49.28798,-16.25444 c 20.76629,-14.44979 28.19087,-47.34159 17.72434,-78.52086 -7.05901,-21.0284 -18.65632,-35.41218 -34.54568,-42.84589 -6.78163,-3.17273 -10.04486,-3.77816 -20.39833,-3.78454 -6.77886,-0.004 -12.7611,0.42674 -13.29387,0.9576 -0.53277,0.53085 -0.53683,2.93139 -0.009,5.33453 0.72341,3.29581 1.74428,4.36934 4.15455,4.36934 3.23531,0 7.82284,4.04755 10.48007,9.24652 2.23672,4.37621 24.50713,88.19467 24.50713,92.23672 0,1.96158 -1.65247,5.53037 -3.67216,7.93064 -2.8651,3.40496 -3.47016,5.28383 -2.75304,8.54882 l 0.91911,4.1847 5.95377,-2.09656 c 3.27456,-1.15311 8.19426,-3.65557 10.93265,-5.56102 z m 80.63718,-18.4861 c 28.77087,-7.72117 30.32104,-8.33916 30.32104,-12.08794 0,-2.96783 -0.61783,-3.37468 -7.35781,-4.84529 -2.69811,-0.58871 -4.234,-2.17151 -5.29171,-5.45334 -2.50205,-7.76324 -27.18164,-100.364113 -27.18164,-101.988871 0,-0.836254 1.60036,-2.911955 3.55636,-4.61267 4.03917,-3.512017 4.65502,-7.936999 1.28462,-9.230341 -2.20662,-0.846759 -51.32832,11.36359 -56.49442,14.043014 -3.95012,2.048748 -2.54878,7.445645 2.07226,7.980724 2.07025,0.23972 4.73368,1.520007 5.91873,2.845082 1.77335,1.982903 29.43704,101.255942 29.43704,105.636832 0,0.7414 -1.60036,2.73949 -3.55635,4.4402 -5.15024,4.47808 -4.68958,9.69185 0.85632,9.69185 1.38378,0 13.27978,-2.88866 26.43556,-6.41925 z m 97.89937,-26.289 c 32.69512,-8.59406 33.75558,-9.01558 33.16359,-13.18246 -0.36349,-2.55857 -1.50944,-3.27431 -5.81172,-3.62993 -3.63207,-0.30023 -6.00487,-1.44623 -7.3634,-3.55635 -1.10246,-1.71237 -8.86623,-28.80887 -17.25285,-60.21446 l -15.24839,-57.101062 -12.95173,3.476137 c -25.04623,6.722197 -27.88842,7.686878 -27.88842,9.465713 0,0.986965 6.72151,26.87826 14.93668,57.536212 8.21518,30.65794 14.93669,56.99506 14.93669,58.52692 0,1.53185 -1.92043,4.15265 -4.26763,5.824 -5.30044,3.77424 -5.81099,9.95779 -0.82218,9.95779 0.85179,0 13.708,-3.19613 28.56936,-7.10251 z m -67.5085,-89.961212 c 0.62785,-12.271883 1.34699,-16.040034 3.66511,-19.204306 2.37243,-3.238424 2.65277,-4.819856 1.58047,-8.915604 -0.71692,-2.738392 -1.48078,-5.160361 -1.69745,-5.382155 -0.40138,-0.410865 -22.4588,5.375698 -23.26353,6.102979 -0.80972,0.731787 9.96113,39.793248 11.48971,41.668428 0.82801,1.01575 2.84177,1.65589 4.47502,1.42254 2.74284,-0.39189 3.0292,-1.58999 3.75067,-15.691882 z m 98.99218,-13.17946 c 0.61936,-1.614035 -8.70037,-40.99021 -10.19714,-43.083265 -0.30128,-0.421302 -22.38325,5.402398 -23.16407,6.109084 -0.24605,0.22269 -0.0246,2.658596 0.49219,5.413123 0.70389,3.752091 1.98208,5.440068 5.09615,6.729955 4.97224,2.059572 11.66641,10.171311 15.44714,18.71829 1.51054,3.414807 3.2041,6.666418 3.76347,7.225799 1.83177,1.831758 7.72628,1.065545 8.56226,-1.112986 z"
     id="path449" /></g><g
   inkscape:groupmode="layer"
   id="layer3"
   inkscape:label="php-logo"
   sodipodi:insensitive="true"
   transform="translate(0,-2.5824218e-5)"
   style="display:none"><g
     id="g3438"
     transform="matrix(1.25,0,0,-1.25,-4.4,394.29875)">
    <g
   id="g3440">
      <g
   clip-path="url(#clipPath3444)"
   id="g3442">
        <g
   id="g3448">
          <g
   id="g3450">
            <path
   d="M 11.52,162 C 11.52,81.677 135.307,16.561 288,16.561 v 0 c 152.693,0 276.481,65.116 276.481,145.439 v 0 c 0,80.322 -123.788,145.439 -276.481,145.439 v 0 C 135.307,307.439 11.52,242.322 11.52,162"
   id="path3462"
   style="fill:url(#radialGradient3452);stroke:none"
   inkscape:connector-curvature="0" />
          </g>
        </g>
      </g>
    </g>
    <g
   id="g3464">
      <g
   clip-path="url(#clipPath3468)"
   id="g3466">
        <g
   id="g3472"
   transform="translate(288,27.3594)">
          <path
   d="M 0,0 C 146.729,0 265.68,60.281 265.68,134.641 265.68,209 146.729,269.282 0,269.282 -146.729,269.282 -265.68,209 -265.68,134.641 -265.68,60.281 -146.729,0 0,0"
   id="path3474"
   style="fill:#777bb3;fill-opacity:1;fill-rule:nonzero;stroke:none"
   inkscape:connector-curvature="0" />
        </g>
      </g>
    </g>
    <g
   id="g3476">
      <g
   clip-path="url(#clipPath3480)"
   id="g3478">
        <g
   id="g3484"
   transform="translate(161.7344,145.3066)">
          <path
   d="m 0,0 c 12.065,0 21.072,2.225 26.771,6.611 5.638,4.341 9.532,11.862 11.573,22.353 1.903,9.806 1.178,16.653 -2.154,20.348 C 32.783,53.086 25.417,55 14.297,55 H -4.984 L -15.673,0 Z m -63.063,-67.75 c -0.895,0 -1.745,0.4 -2.314,1.092 -0.57,0.691 -0.801,1.601 -0.63,2.48 L -37.679,81.573 C -37.405,82.982 -36.17,84 -34.734,84 H 26.32 C 45.508,84 59.79,78.79 68.767,68.513 77.792,58.182 80.579,43.741 77.05,25.592 75.614,18.198 73.144,11.331 69.709,5.183 66.27,-0.972 61.725,-6.667 56.198,-11.747 49.582,-17.939 42.094,-22.429 33.962,-25.071 25.959,-27.678 15.681,-29 3.414,-29 h -24.722 l -7.06,-36.322 c -0.274,-1.41 -1.508,-2.428 -2.944,-2.428 z"
   id="path3486"
   style="fill:#000000;fill-opacity:1;fill-rule:nonzero;stroke:none"
   inkscape:connector-curvature="0" />
        </g>
        <g
   id="g3488"
   transform="translate(159.2236,197.3071)">
          <path
   d="m 0,0 h 16.808 c 13.421,0 18.083,-2.945 19.667,-4.7 2.628,-2.914 3.124,-9.058 1.435,-17.767 C 36.012,-32.217 32.494,-39.13 27.452,-43.012 22.29,-46.986 13.898,-49 2.511,-49 H -9.523 Z m 28.831,35 h -61.055 c -2.872,0 -5.341,-2.036 -5.889,-4.855 l -28.328,-145.751 c -0.342,-1.759 0.12,-3.578 1.259,-4.961 1.14,-1.383 2.838,-2.183 4.63,-2.183 h 31.75 c 2.873,0 5.342,2.036 5.89,4.855 L -16.324,-84 H 5.925 c 12.582,0 23.174,1.372 31.479,4.077 8.541,2.775 16.399,7.48 23.354,13.984 5.752,5.292 10.49,11.232 14.08,17.657 3.591,6.427 6.171,13.594 7.668,21.302 3.715,19.104 0.697,34.402 -8.969,45.466 C 63.965,29.444 48.923,35 28.831,35 M -16.802,-55 H 2.511 c 12.801,0 22.336,2.411 28.601,7.234 6.266,4.824 10.492,12.875 12.688,24.157 2.101,10.832 1.144,18.476 -2.871,22.929 C 36.909,3.773 28.87,6 16.808,6 H -4.946 L -16.802,-55 M 28.831,29 C 47.198,29 60.597,24.18 69.019,14.539 77.44,4.898 79.976,-8.559 76.616,-25.836 75.233,-32.953 72.894,-39.46 69.601,-45.355 66.304,-51.254 61.999,-56.648 56.679,-61.539 50.339,-67.472 43.296,-71.7 35.546,-74.218 27.796,-76.743 17.925,-78 5.925,-78 h -27.196 l -7.531,-38.75 h -31.75 L -32.224,29 h 61.055"
   id="path3490"
   style="fill:#ffffff;fill-opacity:1;fill-rule:nonzero;stroke:none"
   inkscape:connector-curvature="0" />
        </g>
        <g
   id="g3492"
   transform="translate(311.583,116.3066)">
          <path
   d="m 0,0 c -0.896,0 -1.745,0.4 -2.314,1.092 -0.571,0.691 -0.802,1.6 -0.631,2.48 L 9.586,68.061 C 10.778,74.194 10.484,78.596 8.759,80.456 7.703,81.593 4.531,83.5 -4.848,83.5 H -27.55 L -43.305,2.428 C -43.579,1.018 -44.814,0 -46.25,0 h -31.5 c -0.896,0 -1.745,0.4 -2.315,1.092 -0.57,0.691 -0.801,1.601 -0.63,2.48 l 28.328,145.751 c 0.274,1.409 1.509,2.427 2.945,2.427 h 31.5 c 0.896,0 1.745,-0.4 2.315,-1.091 0.57,-0.692 0.801,-1.601 0.63,-2.481 L -21.813,113 H 2.609 c 18.605,0 31.221,-3.28 38.569,-10.028 7.49,-6.884 9.827,-17.891 6.947,-32.719 L 34.945,2.428 C 34.671,1.018 33.437,0 32,0 Z"
   id="path3494"
   style="fill:#000000;fill-opacity:1;fill-rule:nonzero;stroke:none"
   inkscape:connector-curvature="0" />
        </g>
        <g
   id="g3496"
   transform="translate(293.6611,271.0571)">
          <path
   d="m 0,0 h -31.5 c -2.873,0 -5.342,-2.036 -5.89,-4.855 l -28.328,-145.751 c -0.342,-1.759 0.12,-3.578 1.26,-4.961 1.14,-1.383 2.838,-2.183 4.63,-2.183 h 31.5 c 2.872,0 5.342,2.036 5.89,4.855 l 15.283,78.645 h 20.229 c 9.363,0 11.328,-2 11.407,-2.086 0.568,-0.611 1.315,-3.441 0.082,-9.781 l -12.531,-64.489 c -0.342,-1.759 0.12,-3.578 1.26,-4.961 1.14,-1.383 2.838,-2.183 4.63,-2.183 h 32 c 2.872,0 5.342,2.036 5.89,4.855 l 13.179,67.825 c 3.093,15.921 0.447,27.864 -7.861,35.5 -7.928,7.281 -21.208,10.82 -40.599,10.82 H -0.253 L 5.89,-7.145 C 6.231,-5.386 5.77,-3.566 4.63,-2.184 3.49,-0.801 1.792,0 0,0 m 0,-6 -7.531,-38.75 h 28.062 c 17.657,0 29.836,-3.082 36.539,-9.238 6.703,-6.16 8.711,-16.141 6.032,-29.938 l -13.18,-67.824 h -32 l 12.531,64.488 c 1.426,7.336 0.902,12.34 -1.574,15.008 -2.477,2.668 -7.746,4.004 -15.805,4.004 h -25.176 l -16.226,-83.5 h -31.5 L -31.5,-6 H 0"
   id="path3498"
   style="fill:#ffffff;fill-opacity:1;fill-rule:nonzero;stroke:none"
   inkscape:connector-curvature="0" />
        </g>
        <g
   id="g3500"
   transform="translate(409.5498,145.3066)">
          <path
   d="m 0,0 c 12.065,0 21.072,2.225 26.771,6.611 5.638,4.34 9.532,11.861 11.574,22.353 1.903,9.806 1.178,16.653 -2.155,20.348 C 32.783,53.086 25.417,55 14.297,55 H -4.984 L -15.673,0 Z m -63.062,-67.75 c -0.895,0 -1.745,0.4 -2.314,1.092 -0.57,0.691 -0.802,1.601 -0.631,2.48 L -37.679,81.573 C -37.404,82.982 -36.17,84 -34.733,84 H 26.32 C 45.509,84 59.79,78.79 68.768,68.513 77.793,58.183 80.579,43.742 77.051,25.592 75.613,18.198 73.144,11.331 69.709,5.183 66.27,-0.972 61.725,-6.667 56.198,-11.747 49.582,-17.939 42.094,-22.429 33.962,-25.071 25.959,-27.678 15.681,-29 3.414,-29 h -24.723 l -7.057,-36.322 c -0.275,-1.41 -1.509,-2.428 -2.946,-2.428 z"
   id="path3502"
   style="fill:#000000;fill-opacity:1;fill-rule:nonzero;stroke:none"
   inkscape:connector-curvature="0" />
        </g>
        <g
   id="g3504"
   transform="translate(407.0391,197.3071)">
          <path
   d="M 0,0 H 16.808 C 30.229,0 34.891,-2.945 36.475,-4.7 39.104,-7.614 39.6,-13.758 37.91,-22.466 36.012,-32.217 32.493,-39.13 27.452,-43.012 22.29,-46.986 13.898,-49 2.511,-49 H -9.522 Z m 28.831,35 h -61.054 c -2.872,0 -5.341,-2.036 -5.889,-4.855 L -66.44,-115.606 c -0.342,-1.759 0.12,-3.578 1.259,-4.961 1.14,-1.383 2.838,-2.183 4.63,-2.183 h 31.75 c 2.872,0 5.342,2.036 5.89,4.855 L -16.324,-84 H 5.925 c 12.582,0 23.174,1.372 31.479,4.077 8.541,2.775 16.401,7.481 23.356,13.986 5.752,5.291 10.488,11.23 14.078,17.655 3.591,6.427 6.171,13.594 7.668,21.302 3.715,19.105 0.697,34.403 -8.969,45.467 C 63.965,29.444 48.924,35 28.831,35 M -16.801,-55 H 2.511 c 12.801,0 22.336,2.411 28.601,7.234 6.267,4.824 10.492,12.875 12.688,24.157 2.102,10.832 1.145,18.476 -2.871,22.929 C 36.909,3.773 28.87,6 16.808,6 H -4.946 L -16.801,-55 M 28.831,29 C 47.198,29 60.597,24.18 69.019,14.539 77.441,4.898 79.976,-8.559 76.616,-25.836 75.233,-32.953 72.894,-39.46 69.601,-45.355 66.304,-51.254 61.999,-56.648 56.679,-61.539 50.339,-67.472 43.296,-71.7 35.546,-74.218 27.796,-76.743 17.925,-78 5.925,-78 h -27.196 l -7.53,-38.75 h -31.75 L -32.223,29 h 61.054"
   id="path3506"
   style="fill:#ffffff;fill-opacity:1;fill-rule:nonzero;stroke:none"
   inkscape:connector-curvature="0" />
        </g>
      </g>
    </g>
  </g></g><g
   inkscape:groupmode="layer"
   id="layer1"
   inkscape:label="node-logo"
   style="display:inline"
   sodipodi:insensitive="true"><g
     id="g331"
     transform="matrix(1.3333309,0,0,1.3333309,64.076532,12.386133)"><path
       fill="#689f63"
       d="m 218.647,270.93 c -1.46,0 -2.91,-0.383 -4.19,-1.12 l -13.337,-7.896 c -1.992,-1.114 -1.02,-1.508 -0.363,-1.735 2.656,-0.93 3.195,-1.14 6.03,-2.75 0.298,-0.17 0.688,-0.11 0.993,0.07 l 10.246,6.08 c 0.37,0.2 0.895,0.2 1.238,0 l 39.95,-23.06 c 0.37,-0.21 0.61,-0.64 0.61,-1.08 v -46.1 c 0,-0.46 -0.24,-0.87 -0.618,-1.1 l -39.934,-23.04 c -0.37,-0.22 -0.86,-0.22 -1.23,0 l -39.926,23.04 c -0.387,0.22 -0.633,0.65 -0.633,1.09 v 46.1 c 0,0.44 0.24,0.86 0.62,1.07 l 10.94,6.32 c 5.94,2.97 9.57,-0.53 9.57,-4.05 v -45.5 c 0,-0.65 0.51,-1.15 1.16,-1.15 h 5.06 c 0.63,0 1.15,0.5 1.15,1.15 v 45.52 c 0,7.92 -4.32,12.47 -11.83,12.47 -2.31,0 -4.13,0 -9.21,-2.5 l -10.48,-6.04 a 8.447,8.447 0 0 1 -4.19,-7.29 v -46.1 c 0,-3 1.6,-5.8 4.19,-7.28 l 39.99,-23.07 c 2.53,-1.43 5.89,-1.43 8.4,0 l 39.94,23.08 a 8.428,8.428 0 0 1 4.19,7.28 v 46.1 c 0,2.99 -1.61,5.78 -4.19,7.28 l -39.94,23.07 a 8.397,8.397 0 0 1 -4.21,1.12"
       id="path277" /><path
       fill="#689f63"
       d="m 230.987,239.164 c -17.48,0 -21.145,-8.024 -21.145,-14.754 0,-0.64 0.516,-1.15 1.157,-1.15 h 5.16 c 0.57,0 1.05,0.415 1.14,0.978 0.78,5.258 3.1,7.91 13.67,7.91 8.42,0 12,-1.902 12,-6.367 0,-2.57 -1.02,-4.48 -14.1,-5.76 -10.94,-1.08 -17.7,-3.49 -17.7,-12.24 0,-8.06 6.8,-12.86 18.19,-12.86 12.79,0 19.13,4.44 19.93,13.98 a 1.164,1.164 0 0 1 -1.16,1.26 h -5.19 c -0.54,0 -1.01,-0.38 -1.12,-0.9 -1.25,-5.53 -4.27,-7.3 -12.48,-7.3 -9.19,0 -10.26,3.2 -10.26,5.6 0,2.91 1.26,3.76 13.66,5.4 12.28,1.63 18.11,3.93 18.11,12.56 0,8.7 -7.26,13.69 -19.92,13.69 m 48.66,-48.89 h 1.34 c 1.1,0 1.31,-0.77 1.31,-1.22 0,-1.18 -0.81,-1.18 -1.26,-1.18 h -1.38 z m -1.63,-3.78 h 2.97 c 1.02,0 3.02,0 3.02,2.28 0,1.59 -1.02,1.92 -1.63,2.12 1.19,0.08 1.27,0.86 1.43,1.96 0.08,0.69 0.21,1.88 0.45,2.28 h -1.83 c -0.05,-0.4 -0.33,-2.6 -0.33,-2.72 -0.12,-0.49 -0.29,-0.73 -0.9,-0.73 h -1.51 v 3.46 h -1.67 z m -3.57,4.3 c 0,3.58 2.89,6.48 6.44,6.48 3.58,0 6.47,-2.96 6.47,-6.48 0,-3.59 -2.93,-6.44 -6.48,-6.44 -3.5,0 -6.44,2.81 -6.44,6.43 m 14.16,0.03 c 0,4.24 -3.47,7.7 -7.7,7.7 -4.2,0 -7.7,-3.42 -7.7,-7.7 0,-4.36 3.58,-7.7 7.7,-7.7 4.15,0 7.69,3.35 7.69,7.7"
       id="path279" /><path
       fill="#ffffff"
       fill-rule="evenodd"
       d="m 94.936,90.55 c 0,-1.84 -0.97,-3.53 -2.558,-4.445 L 50.022,61.735 a 4.946,4.946 0 0 0 -2.328,-0.67 h -0.438 c -0.812,0.03 -1.613,0.25 -2.34,0.67 L 2.562,86.105 A 5.154,5.154 0 0 0 0,90.555 l 0.093,65.64 c 0,0.91 0.47,1.76 1.27,2.21 0.78,0.48 1.76,0.48 2.54,0 l 25.18,-14.42 c 1.59,-0.946 2.56,-2.618 2.56,-4.44 V 108.88 a 5.1,5.1 0 0 1 2.555,-4.43 l 10.72,-6.174 a 5.086,5.086 0 0 1 2.56,-0.688 c 0.876,0 1.77,0.226 2.544,0.687 l 10.715,6.172 c 1.586,0.91 2.56,2.6 2.56,4.43 v 30.663 c 0,1.82 0.983,3.5 2.565,4.44 l 25.164,14.41 a 2.5,2.5 0 0 0 2.56,0 2.568,2.568 0 0 0 1.268,-2.21 z m 199.868,34.176 c 0,0.457 -0.243,0.88 -0.64,1.106 l -14.548,8.386 a 1.282,1.282 0 0 1 -1.277,0 l -14.55,-8.386 c -0.4,-0.227 -0.64,-0.65 -0.64,-1.106 V 107.93 c 0,-0.458 0.24,-0.88 0.63,-1.11 l 14.54,-8.4 c 0.4,-0.23 0.89,-0.23 1.29,0 l 14.55,8.4 c 0.4,0.23 0.64,0.652 0.64,1.11 z m 3.93,-124.402 a 2.568,2.568 0 0 0 -2.544,0.027 c -0.78,0.46 -1.262,1.3 -1.262,2.21 v 65 a 1.788,1.788 0 0 1 -2.684,1.55 L 281.634,63 a 5.108,5.108 0 0 0 -5.112,0 l -42.37,24.453 a 5.105,5.105 0 0 0 -2.56,4.42 v 48.92 c 0,1.83 0.977,3.51 2.56,4.43 l 42.37,24.47 c 1.582,0.91 3.53,0.91 5.117,0 l 42.37,-24.48 c 1.58,-0.92 2.56,-2.6 2.56,-4.43 V 18.863 a 5.128,5.128 0 0 0 -2.63,-4.47 z m 141.093,107.164 a 5.116,5.116 0 0 0 2.543,-4.422 V 91.21 c 0,-1.824 -0.97,-3.507 -2.547,-4.425 l -42.1,-24.44 a 5.113,5.113 0 0 0 -5.13,0 l -42.36,24.45 c -1.59,0.92 -2.56,2.6 -2.56,4.43 v 48.9 c 0,1.84 0.99,3.54 2.58,4.45 l 42.09,23.99 c 1.55,0.89 3.45,0.9 5.02,0.03 l 25.46,-14.15 c 0.8,-0.45 1.31,-1.3 1.31,-2.22 0,-0.92 -0.49,-1.78 -1.29,-2.23 l -42.62,-24.46 c -0.8,-0.45 -1.29,-1.3 -1.29,-2.21 v -15.34 c 0,-0.916 0.48,-1.76 1.28,-2.216 l 13.26,-7.65 c 0.79,-0.46 1.76,-0.46 2.55,0 l 13.27,7.65 c 0.79,0.45 1.28,1.3 1.28,2.21 v 12.06 c 0,0.91 0.49,1.76 1.28,2.22 0.79,0.45 1.77,0.45 2.56,-0.01 z m 0,0"
       id="path281" /><path
       fill="#689f63"
       fill-rule="evenodd"
       d="m 394.538,105.2 a 0.97,0.97 0 0 1 0.98,0 l 8.13,4.69 c 0.304,0.176 0.49,0.5 0.49,0.85 v 9.39 c 0,0.35 -0.186,0.674 -0.49,0.85 l -8.13,4.69 a 0.97,0.97 0 0 1 -0.98,0 l -8.125,-4.69 a 0.979,0.979 0 0 1 -0.5,-0.85 v -9.39 c 0,-0.35 0.18,-0.674 0.49,-0.85 z m 0,0"
       id="path283" /><g
       clip-path="url(#a)"
       transform="translate(-78.306,-164.016)"
       id="g287"><path
         fill="url(#b)"
         d="m 331.363,246.793 -118.715,-58.19 -60.87,124.174 118.712,58.193 z m 0,0"
         id="path285"
         style="fill:url(#b)" /></g><g
       clip-path="url(#c)"
       transform="translate(-78.306,-164.016)"
       id="g291"><path
         fill="url(#d)"
         d="m 144.07,264.004 83.825,113.453 110.86,-81.906 -83.83,-113.45 z m 0,0"
         id="path289"
         style="fill:url(#d)" /></g><g
       clip-path="url(#e)"
       transform="translate(-78.306,-164.016)"
       id="g295"><path
         fill="url(#f)"
         d="m 197.02,225.934 v 107.43 h 91.683 v -107.43 z m 0,0"
         id="path293"
         style="fill:url(#f)" /></g></g></g><g
   inkscape:groupmode="layer"
   id="layer4"
   inkscape:label="box"
   style="display:inline"
   transform="translate(0,-2.5824218e-5)"
   sodipodi:insensitive="true"><rect
     style="display:inline;fill:#ff5555;fill-opacity:0.730233;stroke:#ff0000;stroke-width:3.325;stroke-linecap:butt;stroke-linejoin:round;stroke-miterlimit:4;stroke-dasharray:none;stroke-dashoffset:5;stroke-opacity:1;paint-order:normal"
     id="rect4637"
     width="642.37848"
     height="165.97977"
     x="-36.572308"
     y="182.41223"
     transform="rotate(-15)" /></g><g
   inkscape:groupmode="layer"
   id="layer2"
   inkscape:label="audit-font"
   style="display:none"
   transform="translate(0,-2.5824218e-5)"
   sodipodi:insensitive="true"><text
   xml:space="preserve"
   style="font-style:normal;font-weight:normal;font-size:40px;line-height:1.25;font-family:sans-serif;letter-spacing:0px;word-spacing:0px;fill:#000000;fill-opacity:1;stroke:none"
   x="58.702145"
   y="99.195732"
   id="text3799"><tspan
     sodipodi:role="line"
     id="tspan3797"
     x="58.702145"
     y="99.195732"
     style="line-height:50" /></text>




<text
   xml:space="preserve"
   style="font-style:normal;font-weight:normal;font-size:40px;line-height:1.25;font-family:sans-serif;letter-spacing:0px;word-spacing:0px;display:inline;fill:#000000;fill-opacity:1;stroke:#000000;stroke-width:3;stroke-linecap:square;stroke-linejoin:bevel;stroke-miterlimit:4;stroke-dasharray:none;stroke-opacity:1;paint-order:fill markers stroke"
   x="-16.830685"
   y="333.31693"
   id="text3803"
   transform="rotate(-15)"><tspan
     sodipodi:role="line"
     id="tspan3801"
     x="-16.830685"
     y="333.31693"
     style="font-style:normal;font-variant:normal;font-weight:normal;font-stretch:normal;font-size:206.667px;font-family:Stencil;-inkscape-font-specification:Stencil;fill:#ff0000;stroke:#000000;stroke-width:3;stroke-linecap:square;stroke-linejoin:bevel;stroke-miterlimit:4;stroke-dasharray:none;stroke-opacity:1;paint-order:fill markers stroke">AUDIT</tspan></text>




</g><g
   transform="translate(0,-2.5824218e-5)"
   style="display:inline"
   inkscape:label="audit-path"
   id="g72"
   inkscape:groupmode="layer"
   sodipodi:insensitive="true"><text
   id="text66"
   y="99.195732"
   x="58.702145"
   style="font-style:normal;font-weight:normal;font-size:40px;line-height:1.25;font-family:sans-serif;letter-spacing:0px;word-spacing:0px;fill:#000000;fill-opacity:1;stroke:none"
   xml:space="preserve"><tspan
     y="99.195732"
     x="58.702145"
     id="tspan64"
     sodipodi:role="line"
     style="line-height:50" /></text>




<g
   aria-label="AUDIT"
   transform="rotate(-15)"
   style="font-style:normal;font-weight:normal;font-size:40px;line-height:1.25;font-family:sans-serif;letter-spacing:0px;word-spacing:0px;display:inline;fill:#000000;fill-opacity:1;stroke:#000000;stroke-width:3;stroke-linecap:square;stroke-linejoin:bevel;stroke-miterlimit:4;stroke-dasharray:none;stroke-opacity:1;paint-order:fill markers stroke"
   id="text70"><path
     d="M 31.909551,195.57278 H 72.57687 l 28.05339,118.57097 q 0.80729,3.12825 1.8164,5.55013 0.90821,1.91732 4.03646,3.12825 2.6237,1.11003 3.63281,2.22006 1.00912,1.11002 1.00912,3.02734 0,5.2474 -7.8711,5.2474 H 52.899135 q -3.027344,0 -4.84375,-1.41277 -1.816407,-1.51367 -1.816407,-3.93554 0,-2.01823 0.807292,-3.02735 0.807292,-1.00911 3.632813,-2.52278 2.018229,-1.00912 2.825521,-2.22005 0.807291,-1.21094 0.807291,-3.02735 0,-1.71549 -0.302734,-3.02734 L 50.779994,299.51159 H 22.625697 l 2.724609,-12.00847 H 47.954473 L 29.386764,205.4621 Z m -6.962891,25.63151 5.146485,20.88867 -17.861329,65.18881 q -0.807292,2.82552 -0.807292,5.24739 0,6.35743 5.953777,9.08204 l 3.531901,1.61458 q 3.330078,1.51367 3.330078,5.04557 0,5.04558 -7.366537,5.04558 H -8.7577678 q -3.7337242,0 -5.9537762,-1.51368 -2.119141,-1.61458 -2.119141,-4.33919 0,-2.92643 4.440105,-4.84375 4.1373695,-1.81641 6.0546873,-3.22917 2.0182292,-1.51367 3.8346355,-4.03645 2.82552088,-4.13737 4.6419272,-10.99935 z"
     style="font-style:normal;font-variant:normal;font-weight:normal;font-stretch:normal;font-size:206.667px;font-family:Stencil;-inkscape-font-specification:Stencil;fill:#ff0000;stroke:#000000;stroke-width:3;stroke-linecap:square;stroke-linejoin:bevel;stroke-miterlimit:4;stroke-dasharray:none;stroke-opacity:1;paint-order:fill markers stroke"
     id="path74"
     inkscape:connector-curvature="0" /><path
     d="m 127.97726,293.05325 v -79.11458 q 0,-3.5319 -1.21093,-5.14649 -0.60547,-0.9082 -1.21094,-1.11002 -0.50456,-0.30274 -3.83464,-1.41276 -4.03646,-1.31185 -4.03646,-5.34831 0,-2.6237 1.91732,-3.93555 2.01823,-1.41276 5.65104,-1.41276 h 2.6237 45.00651 2.6237 l 3.63281,0.40365 q 1.7155,0.50455 2.82553,1.8164 1.11002,1.31185 1.11002,3.12826 0,4.03646 -4.03646,5.34831 -3.33008,1.11002 -3.93554,1.41276 -0.50456,0.20182 -1.11003,1.11002 -1.21094,1.61459 -1.21094,5.14649 v 84.66471 q 0,8.57748 0.40365,12.00847 0.50456,3.33007 1.91732,6.05468 1.31184,2.52279 2.92643,3.63282 1.61458,1.11002 6.1556,2.52278 v 13.2194 h -2.22005 q -13.11849,0 -21.79688,-2.32096 -10.19206,-2.72461 -17.86133,-8.07292 -7.66927,-5.3483 -10.89844,-12.00846 -3.43099,-7.0638 -3.43099,-20.58594 z m 65.49154,42.98828 v -13.2194 q 10.09115,-1.31185 16.85222,-8.27474 7.66927,-7.972 7.66927,-22.9069 v -65.79427 q 0,-13.82487 -10.59571,-19.27409 -3.12825,-1.61458 -4.13737,-2.72461 -0.9082,-1.21094 -0.9082,-3.43099 0,-2.6237 1.91732,-3.73372 1.91732,-1.11003 6.25651,-1.11003 h 24.72331 q 3.12825,0 4.13737,0.20182 1.11002,0.10092 2.11914,0.70638 2.62369,1.51368 2.62369,4.13737 0,2.22006 -1.61458,3.73373 -0.50456,0.50456 -4.33919,2.72461 -4.44011,2.42187 -6.96289,7.46745 -2.52279,4.94466 -2.52279,11.30208 v 65.89518 q 0,16.95313 -7.46745,27.85157 -5.44922,8.07291 -15.64127,12.91666 -5.04558,2.42188 -12.10938,3.5319 z"
     style="font-style:normal;font-variant:normal;font-weight:normal;font-stretch:normal;font-size:206.667px;font-family:Stencil;-inkscape-font-specification:Stencil;fill:#ff0000;stroke:#000000;stroke-width:3;stroke-linecap:square;stroke-linejoin:bevel;stroke-miterlimit:4;stroke-dasharray:none;stroke-opacity:1;paint-order:fill markers stroke"
     id="path76"
     inkscape:connector-curvature="0" /><path
     d="m 314.56256,195.57278 v 137.74415 h -44.9056 -2.6237 q -3.63281,0 -5.65104,-1.31185 -1.91732,-1.41276 -1.91732,-3.93555 0,-4.13737 4.03646,-5.44922 3.33008,-1.11003 3.83463,-1.31185 0.60547,-0.30273 1.21094,-1.21094 1.21094,-1.61458 1.21094,-5.14648 V 213.93867 q 0,-3.5319 -1.21094,-5.14649 -0.60547,-0.9082 -1.21094,-1.11002 -0.50455,-0.30274 -3.83463,-1.41276 -4.03646,-1.31185 -4.03646,-5.44922 0,-2.52279 1.91732,-3.83464 2.01823,-1.41276 5.65104,-1.41276 h 2.6237 z m 20.38411,108.88347 V 224.8371 q 0,-7.36653 -2.11914,-11.70572 -1.31185,-2.82553 -3.22917,-4.13737 -1.91731,-1.31185 -6.05468,-2.22006 v -11.20117 q 5.3483,0 9.08203,0.40365 12.81575,1.41276 24.82422,10.89843 11.90755,9.18295 17.6595,23.91602 5.95378,14.9349 5.95378,33.09896 0,20.58594 -7.56836,36.63086 -7.56836,15.94401 -21.69596,25.12695 -6.86198,4.44011 -12.81576,6.05469 -5.85286,1.61459 -15.43945,1.61459 v -10.89844 q 4.23828,-1.11003 5.85286,-2.01823 1.7155,-0.90821 2.92643,-2.82552 1.51368,-2.22005 2.01823,-4.94466 0.60547,-2.82553 0.60547,-8.17383 z"
     style="font-style:normal;font-variant:normal;font-weight:normal;font-stretch:normal;font-size:206.667px;font-family:Stencil;-inkscape-font-specification:Stencil;fill:#ff0000;stroke:#000000;stroke-width:3;stroke-linecap:square;stroke-linejoin:bevel;stroke-miterlimit:4;stroke-dasharray:none;stroke-opacity:1;paint-order:fill markers stroke"
     id="path78"
     inkscape:connector-curvature="0" /><path
     d="m 448.67387,333.31693 h -45.00651 -2.6237 q -3.63281,0 -5.65104,-1.31185 -1.91731,-1.41276 -1.91731,-3.93555 0,-4.13737 4.03645,-5.44922 3.33008,-1.11003 3.83464,-1.31185 0.60547,-0.30273 1.21094,-1.21094 1.21093,-1.61458 1.21093,-5.14648 V 213.93867 q 0,-3.5319 -1.21093,-5.14649 -0.60547,-0.9082 -1.21094,-1.11002 -0.50456,-0.30274 -3.83464,-1.41276 -4.03645,-1.31185 -4.03645,-5.44922 0,-2.52279 1.91731,-3.83464 2.01823,-1.41276 5.65104,-1.41276 h 2.6237 45.00651 2.6237 q 3.63281,0 5.55013,1.41276 2.01823,1.31185 2.01823,3.83464 0,4.13737 -4.03646,5.44922 -3.33007,1.11002 -3.93554,1.41276 -0.50456,0.20182 -1.11003,1.11002 -1.21094,1.61459 -1.21094,5.14649 v 101.01237 q 0,3.5319 1.21094,5.14648 0.60547,0.90821 1.11003,1.21094 0.60547,0.20182 3.93554,1.31185 4.03646,1.31185 4.03646,5.44922 0,2.52279 -2.01823,3.93555 -1.91732,1.31185 -5.55013,1.31185 z"
     style="font-style:normal;font-variant:normal;font-weight:normal;font-stretch:normal;font-size:206.667px;font-family:Stencil;-inkscape-font-specification:Stencil;fill:#ff0000;stroke:#000000;stroke-width:3;stroke-linecap:square;stroke-linejoin:bevel;stroke-miterlimit:4;stroke-dasharray:none;stroke-opacity:1;paint-order:fill markers stroke"
     id="path80"
     inkscape:connector-curvature="0" /><path
     d="m 550.79629,195.57278 v 118.57097 q 0,3.93554 1.51367,5.65104 0.80729,1.00911 1.51367,1.31185 0.70638,0.20182 4.64193,1.21094 4.84375,1.11002 4.84375,5.55013 0,2.62369 -2.6237,4.23828 -1.91731,1.21094 -6.45833,1.21094 h -3.33008 -45.00651 -3.33008 q -4.4401,0 -6.76107,-1.31185 -2.22005,-1.41276 -2.22005,-4.13737 0,-4.44011 4.84375,-5.55013 3.93555,-1.00912 4.64193,-1.21094 0.70638,-0.30274 1.41276,-1.31185 1.51367,-1.7155 1.51367,-5.65104 V 195.57278 Z m 34.91537,0 v 41.27279 q 0,2.92643 -1.7155,4.74284 -1.61458,1.8164 -4.23828,1.8164 -2.52279,0 -4.23828,-1.61458 -1.61458,-1.71549 -2.11914,-4.64193 l -1.00912,-6.1556 q -1.51367,-9.38476 -5.85286,-16.24674 -2.72461,-4.23828 -7.36654,-6.96289 v -12.21029 z m -114.4336,0 h 26.53971 v 12.21029 q -4.74283,2.72461 -7.36653,6.96289 -4.3392,6.86198 -5.85287,16.24674 l -1.00911,6.1556 q -0.50456,2.92644 -2.22005,4.64193 -1.61459,1.61458 -4.13737,1.61458 -2.6237,0 -4.3392,-1.8164 -1.61458,-1.81641 -1.61458,-4.74284 z"
     style="font-style:normal;font-variant:normal;font-weight:normal;font-stretch:normal;font-size:206.667px;font-family:Stencil;-inkscape-font-specification:Stencil;fill:#ff0000;stroke:#000000;stroke-width:3;stroke-linecap:square;stroke-linejoin:bevel;stroke-miterlimit:4;stroke-dasharray:none;stroke-opacity:1;paint-order:fill markers stroke"
     id="path82"
     inkscape:connector-curvature="0" /></g>



</g></svg>
